<?xml version="1.0" encoding="UTF-8" standalone="no"?>
<!-- Created with Inkscape (http://www.inkscape.org/) -->

<svg
   xmlns:dc="http://purl.org/dc/elements/1.1/"
   xmlns:cc="http://creativecommons.org/ns#"
   xmlns:rdf="http://www.w3.org/1999/02/22-rdf-syntax-ns#"
   xmlns:svg="http://www.w3.org/2000/svg"
   xmlns="http://www.w3.org/2000/svg"
   xmlns:xlink="http://www.w3.org/1999/xlink"
   xmlns:sodipodi="http://sodipodi.sourceforge.net/DTD/sodipodi-0.dtd"
   xmlns:inkscape="http://www.inkscape.org/namespaces/inkscape"
   width="210mm"
   height="297mm"
   id="svg2"
   version="1.1"
   inkscape:version="0.48.4 r9939"
   sodipodi:docname="Nouveau document 1">
  <defs
     id="defs4">
    <linearGradient
       inkscape:collect="always"
       id="linearGradient3771">
      <stop
         style="stop-color:#f9fbff;stop-opacity:1;"
         offset="0"
         id="stop3773" />
      <stop
         style="stop-color:#f9fbff;stop-opacity:0;"
         offset="1"
         id="stop3775" />
    </linearGradient>
    <linearGradient
       id="linearGradient3757">
      <stop
         style="stop-color:#95bbff;stop-opacity:1;"
         offset="0"
         id="stop3759" />
      <stop
         id="stop3765"
         offset="0.57778847"
         style="stop-color:#a5b8da;stop-opacity:1;" />
      <stop
         style="stop-color:#164884;stop-opacity:1;"
         offset="1"
         id="stop3761" />
    </linearGradient>
    <linearGradient
       inkscape:collect="always"
       xlink:href="#linearGradient3757"
       id="linearGradient3763"
       x1="240.41631"
       y1="0.90176803"
       x2="230.937"
       y2="1093.8868"
       gradientUnits="userSpaceOnUse" />
    <radialGradient
       inkscape:collect="always"
       xlink:href="#linearGradient3771"
       id="radialGradient3777"
       cx="108.08632"
       cy="312.93051"
       fx="108.08632"
       fy="312.93051"
       r="25.253813"
       gradientTransform="matrix(1,0,0,1.3600001,0,-112.65502)"
       gradientUnits="userSpaceOnUse" />
    <radialGradient
       inkscape:collect="always"
       xlink:href="#linearGradient3771"
       id="radialGradient3783"
       gradientUnits="userSpaceOnUse"
       gradientTransform="matrix(1,0,0,1.3600001,0,-112.65502)"
       cx="108.08632"
       cy="312.93051"
       fx="108.08632"
       fy="312.93051"
       r="25.253813" />
    <radialGradient
       inkscape:collect="always"
       xlink:href="#linearGradient3771"
       id="radialGradient3791"
       gradientUnits="userSpaceOnUse"
       gradientTransform="matrix(1,0,0,1.3600001,0,-112.65502)"
       cx="108.08632"
       cy="312.93051"
       fx="108.08632"
       fy="312.93051"
       r="25.253813" />
    <radialGradient
       inkscape:collect="always"
       xlink:href="#linearGradient3771"
       id="radialGradient3797"
       gradientUnits="userSpaceOnUse"
       gradientTransform="matrix(1,0,0,1.3600001,0,-112.65502)"
       cx="108.08632"
       cy="312.93051"
       fx="108.08632"
       fy="312.93051"
       r="25.253813" />
  </defs>
  <sodipodi:namedview
     id="base"
     pagecolor="#ffffff"
     bordercolor="#666666"
     borderopacity="1.0"
     inkscape:pageopacity="0.0"
     inkscape:pageshadow="2"
     inkscape:zoom="0.49497475"
     inkscape:cx="278.29486"
     inkscape:cy="728.52528"
     inkscape:document-units="px"
     inkscape:current-layer="layer1"
     showgrid="false"
     inkscape:window-width="1366"
     inkscape:window-height="744"
     inkscape:window-x="0"
     inkscape:window-y="24"
     inkscape:window-maximized="1" />
  <metadata
     id="metadata7">
    <rdf:RDF>
      <cc:Work
         rdf:about="">
        <dc:format>image/svg+xml</dc:format>
        <dc:type
           rdf:resource="http://purl.org/dc/dcmitype/StillImage" />
        <dc:title></dc:title>
      </cc:Work>
    </rdf:RDF>
  </metadata>
  <g
     inkscape:label="Calque 1"
     inkscape:groupmode="layer"
     id="layer1">
    <rect
       style="fill:url(#linearGradient3763);fill-opacity:1;stroke:none"
       id="rect3755"
       width="744.09448"
       height="1052.3622"
       x="0"
       y="8.4103567e-06"
       inkscape:transform-center-x="-111.11678"
       inkscape:transform-center-y="242.43661" />
    <path
       sodipodi:type="arc"
       style="fill:#3c73e7;fill-opacity:1;stroke:none"
       id="path3767"
       sodipodi:cx="147.48227"
       sodipodi:cy="324.04221"
       sodipodi:rx="84.852814"
       sodipodi:ry="108.08632"
       d="m 232.33508,324.04221 a 84.852814,108.08632 0 1 1 -169.705624,0 84.852814,108.08632 0 1 1 169.705624,0 z"
       transform="matrix(0.86898749,0,0,0.68219581,-7.9571989,191.8805)" />
    <path
       sodipodi:type="arc"
       style="fill:url(#radialGradient3777);fill-opacity:1;stroke:none"
       id="path3769"
       sodipodi:cx="108.08632"
       sodipodi:cy="312.93051"
       sodipodi:rx="25.253813"
       sodipodi:ry="34.345188"
       d="m 133.34013,312.93051 a 25.253813,34.345188 0 1 1 -50.507624,0 25.253813,34.345188 0 1 1 50.507624,0 z"
       transform="matrix(0.79472162,0.27206163,-0.32388289,0.94609718,103.33757,68.273901)" />
    <path
       transform="matrix(-0.08402247,0.74522891,-0.58503954,-0.06596156,842.92377,69.848577)"
       d="m 232.33508,324.04221 a 84.852814,108.08632 0 1 1 -169.705624,0 84.852814,108.08632 0 1 1 169.705624,0 z"
       sodipodi:ry="108.08632"
       sodipodi:rx="84.852814"
       sodipodi:cy="324.04221"
       sodipodi:cx="147.48227"
       id="path3779"
       style="fill:#3c73e7;fill-opacity:1;stroke:none"
       sodipodi:type="arc" />
    <path
       transform="matrix(-0.31015713,0.65523411,-0.78004061,-0.36923468,938.16559,177.2446)"
       d="m 133.34013,312.93051 a 25.253813,34.345188 0 1 1 -50.507624,0 25.253813,34.345188 0 1 1 50.507624,0 z"
       sodipodi:ry="34.345188"
       sodipodi:rx="25.253813"
       sodipodi:cy="312.93051"
       sodipodi:cx="108.08632"
       id="path3781"
       style="fill:url(#radialGradient3783);fill-opacity:1;stroke:none"
       sodipodi:type="arc" />
    <path
       sodipodi:type="arc"
       style="fill:#3c73e7;fill-opacity:1;stroke:none"
       id="path3785"
       sodipodi:cx="147.48227"
       sodipodi:cy="324.04221"
       sodipodi:rx="84.852814"
       sodipodi:ry="108.08632"
       d="m 232.33508,324.04221 a 84.852814,108.08632 0 1 1 -169.705624,0 84.852814,108.08632 0 1 1 169.705624,0 z"
       transform="matrix(-1.2493075,0.43027635,-0.33778705,-0.98076472,896.27661,903.66747)" />
    <path
       sodipodi:type="arc"
       style="fill:url(#radialGradient3791);fill-opacity:1;stroke:none"
       id="path3787"
       sodipodi:cx="108.08632"
       sodipodi:cy="312.93051"
       sodipodi:rx="25.253813"
       sodipodi:ry="34.345188"
       d="m 133.34013,312.93051 a 25.253813,34.345188 0 1 1 -50.507624,0 25.253813,34.345188 0 1 1 50.507624,0 z"
       transform="matrix(-1.2772488,0.00237206,-0.0028239,-1.5205344,797.47615,1136.4788)" />
    <path
       transform="matrix(-0.11336294,1.0054613,-0.78933408,-0.0889952,428.57781,12.668829)"
       d="m 232.33508,324.04221 a 84.852814,108.08632 0 1 1 -169.705624,0 84.852814,108.08632 0 1 1 169.705624,0 z"
       sodipodi:ry="108.08632"
       sodipodi:rx="84.852814"
       sodipodi:cy="324.04221"
       sodipodi:cx="147.48227"
       id="path3793"
       style="fill:#3c73e7;fill-opacity:1;stroke:none"
       sodipodi:type="arc" />
    <path
       transform="matrix(-0.54646157,1.1544479,-1.3743428,-0.65054949,679.73347,165.35157)"
       d="m 133.34013,312.93051 a 25.253813,34.345188 0 1 1 -50.507624,0 25.253813,34.345188 0 1 1 50.507624,0 z"
       sodipodi:ry="34.345188"
       sodipodi:rx="25.253813"
       sodipodi:cy="312.93051"
       sodipodi:cx="108.08632"
       id="path3795"
       style="fill:url(#radialGradient3797);fill-opacity:1;stroke:none"
       sodipodi:type="arc" />
  </g>
</svg>
